<?xml version="1.0" encoding="UTF-8" standalone="no"?>
<!-- Created with Inkscape (http://www.inkscape.org/) -->

<svg
   width="45mm"
   height="20mm"
   viewBox="0 0 45 20"
   version="1.1"
   id="svg5"
   inkscape:version="1.2.2 (b0a8486541, 2022-12-01)"
   sodipodi:docname="cat.svg"
   xmlns:inkscape="http://www.inkscape.org/namespaces/inkscape"
   xmlns:sodipodi="http://sodipodi.sourceforge.net/DTD/sodipodi-0.dtd"
   xmlns="http://www.w3.org/2000/svg"
   xmlns:svg="http://www.w3.org/2000/svg">
  <sodipodi:namedview
     id="namedview7"
     pagecolor="#000000"
     bordercolor="#ffffff"
     borderopacity="1"
     inkscape:showpageshadow="0"
     inkscape:pageopacity="1"
     inkscape:pagecheckerboard="1"
     inkscape:deskcolor="#505050"
     inkscape:document-units="mm"
     showgrid="false"
     inkscape:zoom="6.2003367"
     inkscape:cx="88.462938"
     inkscape:cy="19.515069"
     inkscape:window-width="1920"
     inkscape:window-height="1043"
     inkscape:window-x="0"
     inkscape:window-y="0"
     inkscape:window-maximized="1"
     inkscape:current-layer="layer1" />
  <defs
     id="defs2" />
  <g
     inkscape:label="Layer 1"
     inkscape:groupmode="layer"
     id="layer1"
     style="stroke:#1a1a1a">
    <g
       id="g7859"
       transform="translate(-3.6040844,-3.9930273)"
       style="stroke:#ffffff">
      <path
         style="fill:none;stroke:#ffffff;stroke-width:0.256;stroke-linecap:round;stroke-dasharray:none;stroke-opacity:1;paint-order:stroke fill markers"
         d="m 19.365897,6.8400773 c 0.478017,-0.9938374 1.3652,-1.7898162 2.203147,-2.3577676 0.422295,0.9098972 0.881621,2.1079261 0.123207,2.9391203 -0.22259,0.3768949 -0.293672,0.4990309 -0.457657,0.8735334"
         id="path7768" />
      <path
         style="fill:none;stroke:#ffffff;stroke-width:0.256;stroke-linecap:round;stroke-dasharray:none;stroke-opacity:1;paint-order:stroke fill markers"
         d="m 17.323518,6.7471585 c 0.828266,-0.3453414 1.490736,0.064299 2.269507,0.127126"
         id="path7770" />
      <path
         style="fill:none;stroke:#ffffff;stroke-width:0.256;stroke-linecap:round;stroke-dasharray:none;stroke-opacity:1;paint-order:stroke fill markers"
         d="m 15.098239,7.8709688 c -0.414981,0.7484231 -0.126857,1.6453224 0.10094,2.2711182 0.01703,0.13237 0.08338,0.288191 0.1252,0.38255"
         id="path7804" />
      <path
         style="fill:none;stroke:#ffffff;stroke-width:0.256;stroke-linecap:round;stroke-dasharray:none;stroke-opacity:1;paint-order:stroke fill markers"
         d="m 17.602066,9.9080192 c 0.509904,0.04129 1.01087,0.031275 0.432023,0.4386968 -0.176467,0.298568 -0.376381,-0.176422 -0.51403,-0.34576 l 0.082,-0.092947 z"
         id="path7806" />
      <path
         style="fill:none;stroke:#ffffff;stroke-width:0.256;stroke-linecap:round;stroke-dasharray:none;stroke-opacity:1;paint-order:stroke fill markers"
         d="m 17.831961,10.520479 c 8.78e-4,0.143418 0.01374,0.292825 -0.0618,0.413901"
         id="path7820" />
      <g
         id="g11054">
        <path
           style="fill:none;stroke:#ffffff;stroke-width:0.256;stroke-linecap:round;stroke-dasharray:none;stroke-opacity:1;paint-order:stroke fill markers"
           d="m 16.171013,8.0247473 c 0.508781,-0.033515 1.211064,-0.2702292 1.486095,0.319507 0.109327,0.2054252 0.420057,0.7435491 -0.06615,0.640904 -0.538694,-0.033839 -1.256625,-0.014281 -1.573227,-0.509724 -0.02935,-0.1476877 -0.06127,-0.2992068 -0.07809,-0.440345"
           id="path7794" />
        <path
           style="fill:none;stroke:#ffffff;stroke-width:0.256;stroke-linecap:round;stroke-dasharray:none;stroke-opacity:1;paint-order:stroke fill markers"
           d="m 16.87141,8.1045067 c 0.04804,0.2070629 0.05824,0.4535581 0.026,0.6507254"
           id="path7796" />
        <path
           style="fill:none;stroke:#ffffff;stroke-width:0.256;stroke-linecap:round;stroke-dasharray:none;stroke-opacity:1;paint-order:stroke fill markers"
           d="m 16.797189,8.157312 c -0.132718,0.1629389 -0.148722,0.486476 0.01259,0.625999"
           id="path7802" />
      </g>
      <path
         style="fill:none;stroke:#ffffff;stroke-width:0.256;stroke-linecap:round;stroke-dasharray:none;stroke-opacity:1;paint-order:stroke fill markers"
         d="m 16.663717,10.845867 c 0.169189,0.454693 0.86143,0.527949 1.139764,0.295981 0.228246,0.434623 0.990707,0.434951 1.278446,0.10131"
         id="path7822" />
      <path
         style="fill:none;stroke:#ffffff;stroke-width:0.256;stroke-linecap:round;stroke-dasharray:none;stroke-opacity:1;paint-order:stroke fill markers"
         d="m 16.599182,10.802142 c -0.558813,0.389547 -0.661662,1.062662 -0.953742,1.625317 -0.06126,0.207017 -0.07834,0.452245 -0.15063,0.632212"
         id="path7828" />
      <path
         style="fill:none;stroke:#ffffff;stroke-width:0.256;stroke-linecap:round;stroke-dasharray:none;stroke-opacity:1;paint-order:stroke fill markers"
         d="m 15.058531,13.030283 c 0.243517,0.236845 0.939838,-0.11694 0.923389,0.317974 -0.04226,0.341232 0.109173,0.935349 -0.444002,0.79317 -0.555088,0.01266 -0.761424,-0.123618 -0.517331,-0.693959 0.07979,-0.145332 -0.105344,-0.289836 0.03794,-0.417185 z"
         id="path7834" />
      <path
         style="fill:none;stroke:#ffffff;stroke-width:0.256;stroke-linecap:round;stroke-dasharray:none;stroke-opacity:1;paint-order:stroke fill markers"
         d="m 15.111088,14.15071 c -0.346215,0.606776 0.504433,0.820969 0.481148,0.207695 v -0.200092"
         id="path7836" />
      <path
         style="fill:none;stroke:#ffffff;stroke-width:0.256;stroke-linecap:round;stroke-dasharray:none;stroke-opacity:1;paint-order:stroke fill markers"
         d="m 15.288236,10.569629 c 0.07225,0.29531 0.222355,0.544544 0.435378,0.756009"
         id="path7838" />
      <path
         style="fill:none;stroke:#ffffff;stroke-width:0.256;stroke-linecap:round;stroke-dasharray:none;stroke-opacity:1;paint-order:stroke fill markers"
         d="m 16.305054,11.889432 c 0.830158,0.352307 1.789678,0.393026 2.694817,0.35829 0.467187,-0.270161 0.990268,-0.60771 1.469731,-0.95521 0.689457,-0.847857 1.115928,-1.7315143 1.05358,-2.8719658"
         id="path7840" />
      <g
         id="g11062"
         transform="matrix(-0.99520516,-0.09780943,-0.09780943,0.99520516,37.283609,1.8237052)">
        <path
           style="fill:none;stroke:#ffffff;stroke-width:0.256;stroke-linecap:round;stroke-dasharray:none;stroke-opacity:1;paint-order:stroke fill markers"
           d="m 16.171013,8.0247473 c 0.508781,-0.033515 1.211064,-0.2702292 1.486095,0.319507 0.109327,0.2054252 0.420057,0.7435491 -0.06615,0.640904 -0.538694,-0.033839 -1.256625,-0.014281 -1.573227,-0.509724 -0.02935,-0.1476877 -0.06127,-0.2992068 -0.07809,-0.440345"
           id="path11056" />
        <path
           style="fill:none;stroke:#ffffff;stroke-width:0.256;stroke-linecap:round;stroke-dasharray:none;stroke-opacity:1;paint-order:stroke fill markers"
           d="m 16.87141,8.1045067 c 0.04804,0.2070629 0.05824,0.4535581 0.026,0.6507254"
           id="path11058" />
        <path
           style="fill:none;stroke:#ffffff;stroke-width:0.256;stroke-linecap:round;stroke-dasharray:none;stroke-opacity:1;paint-order:stroke fill markers"
           d="m 16.797189,8.157312 c -0.132718,0.1629389 -0.148722,0.486476 0.01259,0.625999"
           id="path11060" />
      </g>
    </g>
    <path
       style="fill:none;stroke:#ffffff;stroke-width:0.256;stroke-linecap:round;stroke-dasharray:none;stroke-opacity:1;paint-order:stroke fill markers"
       d="m 11.392196,6.7683101 c -0.313012,0.5673851 -0.46746,1.0323391 -0.753086,1.6406903 -0.319207,0.9321742 -0.388003,1.9540886 -0.904241,2.8286046 -0.1230635,0.522314 -0.5203644,1.045353 -0.367195,1.541474 -0.018965,0.07894 0.2931076,0.09798 0.244364,0.26084"
       id="path10767" />
    <path
       style="fill:none;stroke:#ffffff;stroke-width:0.256;stroke-linecap:round;stroke-dasharray:none;stroke-opacity:1;paint-order:stroke fill markers"
       d="m 10.758897,13.625389 c 0.283442,0.392157 0.590766,0.745637 1.094998,0.793223"
       id="path10769" />
    <path
       style="fill:none;stroke:#ffffff;stroke-width:0.256;stroke-linecap:round;stroke-dasharray:none;stroke-opacity:1;paint-order:stroke fill markers"
       d="m 9.3122622,12.943801 c -0.3065892,0.311665 -0.7269927,0.54243 -1.0630629,0.803644 -0.80088,0.605769 -1.9924886,0.868284 -2.7731069,1.27908 -0.3995202,0.145925 -0.9842107,0.0071 -1.0488971,0.54447 -0.1788425,0.195312 -0.390689,0.706629 0.075988,0.866234 0.5982242,0.153678 1.4720708,0.06738 1.8983232,-0.23535 0.1205366,-0.265577 0.3544547,-0.455842 0.583585,-0.67044 0.5538849,-0.239697 1.1807432,-0.129072 1.7122514,-0.35441 0.5044103,-0.112246 0.9707106,-0.382336 1.4079861,-0.64249 0.305602,-0.152641 0.578772,-0.319564 0.8206,-0.46212"
       id="path10775" />
    <path
       style="fill:none;stroke:#ffffff;stroke-width:0.256;stroke-linecap:round;stroke-dasharray:none;stroke-opacity:1;paint-order:stroke fill markers"
       d="m 6.7453959,17.310747 c -0.6245437,0.251755 -1.0166094,0.270866 -1.4222997,0.748693 -0.2002573,0.26301 0.051509,0.5921 0.27292,0.707442 0.4238285,0.276046 1.1484684,0.120418 1.5025241,-0.15987 0.6217702,-0.244058 1.3145122,-0.263626 1.8783133,-0.73618 0.4680486,-0.33044 0.8739179,-0.414568 1.3725854,-0.56612 0.632904,-0.08486 1.441826,-0.493743 1.883869,-0.86751 0.711684,-0.309002 1.103016,-0.896193 1.944089,-0.967876 0.87902,-0.230204 1.778385,-0.574677 2.660608,-0.610364 0.371105,-0.198981 0.590254,-0.489704 1.010409,-0.798649 0.163368,-0.190889 0.514233,-0.401769 0.805221,-0.529399"
       id="path10777"
       sodipodi:nodetypes="cccccccccccccsccccccsccccscscsccsscssscsccsccccscccccccccccccsscccscccccscccscccccccsccccccscccccssccsccccccccccscccsccccsssccccccccscccccscccccscccccscccccccscscccccsccccccccccsccccccsccccccccccccsccscccccccsssscscsccscccccsccscscssccccccccccscc" />
    <path
       style="fill:none;stroke:#ffffff;stroke-width:0.256;stroke-linecap:round;stroke-dasharray:none;stroke-opacity:1;paint-order:stroke fill markers"
       d="m 17.44407,14.651811 c 0.546956,0.472849 1.46352,0.389995 2.237817,0.516456 2.047039,0.166491 4.186606,0.245421 6.179765,-0.21107 0.325806,-0.01819 0.655775,-0.114842 0.910358,-0.1922"
       id="path10781" />
    <path
       style="fill:none;stroke:#ffffff;stroke-width:0.256;stroke-linecap:round;stroke-dasharray:none;stroke-opacity:1;paint-order:stroke fill markers"
       d="m 27.924336,13.577984 c -0.496693,0.361878 -1.020286,0.754339 -1.114149,1.302606 0.244052,0.585827 0.996991,0.561443 1.627051,0.82991 0.485238,0.0682 0.775866,0.271785 1.185713,0.41801"
       id="path10783" />
    <path
       style="fill:none;stroke:#ffffff;stroke-width:0.256;stroke-linecap:round;stroke-dasharray:none;stroke-opacity:1;paint-order:stroke fill markers"
       d="m 30.732491,15.431955 c -0.885751,0.498769 -1.94668,0.810021 -2.765968,1.474783 -0.258447,0.322909 -0.355186,0.646557 -0.42576,1.037131 0.09309,0.547126 0.943134,0.837778 1.503563,0.5337 0.715838,-0.330573 1.619615,-0.147491 2.220408,-0.76005 0.716128,-0.187724 1.162663,-0.727257 1.91581,-0.89283 0.497552,-0.164385 0.265926,-0.808832 0.70391,-1.073774 0.291519,-0.443633 -0.0072,-1.158467 -0.36015,-1.465456 -0.599064,-0.414816 -1.094375,-0.674368 -1.837879,-0.76152"
       id="path10785" />
    <path
       style="fill:none;stroke:#ffffff;stroke-width:0.256;stroke-linecap:round;stroke-dasharray:none;stroke-opacity:1;paint-order:stroke fill markers"
       d="m 28.527123,17.153528 c -0.62393,0.05139 -0.25752,0.622246 0.161392,0.17038 0.212745,-0.04364 -0.0754,-0.120945 -0.161392,-0.17038 z"
       id="path10787" />
    <path
       style="fill:none;stroke:#ffffff;stroke-width:0.256;stroke-linecap:round;stroke-dasharray:none;stroke-opacity:1;paint-order:stroke fill markers"
       d="m 28.562281,17.944798 c -0.63132,-0.219995 -0.938102,0.463405 -0.173471,0.376667 0.158287,-0.05284 0.484665,-0.395938 -0.05249,-0.457117"
       id="path10789" />
    <path
       style="fill:none;stroke:#ffffff;stroke-width:0.256;stroke-linecap:round;stroke-dasharray:none;stroke-opacity:1;paint-order:stroke fill markers"
       d="m 29.393665,17.745168 c -0.840272,0.309868 0.0074,0.735068 0.135789,0.161795 0.08441,-0.262739 -0.299528,-0.156705 -0.409987,-0.10682"
       id="path10791" />
    <path
       style="fill:none;stroke:#ffffff;stroke-width:0.256;stroke-linecap:round;stroke-dasharray:none;stroke-opacity:1;paint-order:stroke fill markers"
       d="m 30.016413,16.792357 c -0.817096,-0.192587 -0.96653,0.76776 -0.157065,0.82079 0.466728,0.210521 0.734564,-0.402077 0.252834,-0.619785"
       id="path10793" />
    <path
       style="fill:none;stroke:#ffffff;stroke-width:0.256;stroke-linecap:round;stroke-dasharray:none;stroke-opacity:1;paint-order:stroke fill markers"
       d="m 6.7837446,17.276065 c 1.1517521,-0.220963 1.9273833,-1.149557 3.0560125,-1.44255 0.7476589,-0.361468 1.4835679,-0.545197 2.0779859,-1.144049 0.16755,-0.561678 1.0609,-0.829837 1.648262,-0.91071 0.364311,-0.131032 0.748999,-0.302586 1.152405,-0.35429"
       id="path10795" />
    <path
       style="fill:none;stroke:#ffffff;stroke-width:0.256;stroke-linecap:round;stroke-dasharray:none;stroke-opacity:1;paint-order:stroke fill markers"
       d="m 14.030465,13.543184 c 0.222273,-0.474898 0.38154,-0.950598 0.602331,-1.37239"
       id="path10797" />
    <path
       style="fill:none;stroke:#ffffff;stroke-width:0.256;stroke-linecap:round;stroke-dasharray:none;stroke-opacity:1;paint-order:stroke fill markers"
       d="M 17.250892,7.005348 C 17.715499,6.8129896 18.32495,6.7518495 18.78038,6.506622 20.168929,6.415314 21.570244,6.3559 22.963452,6.292793 c 2.174494,0.2287787 3.295542,0.7706426 4.985415,0.790148 0.740136,0.1047213 1.569987,0.294732 2.164872,0.330886 0.948365,0.00892 1.78964,0.464975 2.762032,0.449663 0.861956,9.6e-6 1.816588,1.042 2.015701,1.8536494 0.450573,0.7657006 0.224081,0.4003026 0.621639,1.3054496 0.32723,0.666452 0.640776,1.274927 0.893159,1.865962 0.660927,1.20815 1.526905,2.406183 2.090511,3.598262 0.205125,0.177269 0.341685,0.412067 0.520289,0.587541 0.490464,0.55715 1.018307,1.231358 1.07408,2.008295 -0.650631,0.20228 -0.8703,-0.369257 -1.17047,-0.73136"
       id="path10827"
       sodipodi:nodetypes="ccccccccccccc" />
    <path
       style="fill:none;stroke:#ffffff;stroke-width:0.256;stroke-linecap:round;stroke-dasharray:none;stroke-opacity:1;paint-order:stroke fill markers"
       d="m 39.406181,19.101328 c 0.261643,0.636221 -0.331848,0.726463 -0.768288,0.74342 -0.312861,-0.337759 -0.41633,-0.63601 -0.52923,-1.023416"
       id="path10831" />
    <path
       style="fill:none;stroke:#ffffff;stroke-width:0.256;stroke-linecap:round;stroke-dasharray:none;stroke-opacity:1;paint-order:stroke fill markers"
       d="m 38.382707,19.675841 c -0.144274,0.104458 -0.259268,0.280035 -0.586743,0.03219 -0.262846,-0.152592 -0.442266,-0.212444 -0.614,-0.46828 -0.337582,-0.479666 0.207191,-1.397144 -0.10932,-1.933576 -0.416905,-0.536846 -0.897328,-0.84621 -1.20693,-1.36189 -0.256231,-0.279037 -0.811492,-0.240468 -1.200375,-0.47532 -0.297549,-0.106228 -0.444331,-0.418741 -0.697528,-0.662358 -0.1817,-0.416813 -0.717263,-0.63021 -1.084886,-1.066724 -0.293106,-0.229381 -0.464321,-0.693171 -0.65731,-0.95763 -0.412611,-0.38289 -0.787379,-0.488741 -1.107783,-0.832773 -0.385547,-0.306266 -0.892906,-0.569711 -1.167686,-0.868858"
       id="path10833" />
    <path
       style="fill:none;stroke:#ffffff;stroke-width:0.256;stroke-linecap:round;stroke-dasharray:none;stroke-opacity:1;paint-order:stroke fill markers"
       d="m 34.882843,9.5615775 c 0.931802,0.6554445 2.174035,0.5737285 3.352607,0.5902415 0.475456,-0.1558257 0.973694,-0.1790694 1.354186,-0.3007935 0.602118,-0.217283 1.108874,-0.568948 1.535898,-0.903316 0.317017,-0.4487805 0.608474,-0.9609919 0.83071,-1.3194939 0.509185,-0.8362261 0.499118,-1.9704864 0.388614,-2.8778177 -0.200449,-0.4592873 -0.65598,-1.0214658 -0.932548,-1.4514052 -0.158798,-0.6295928 -0.01468,-1.4245912 0.757297,-1.3129989 0.883618,-0.1359352 1.201421,0.825167 1.446868,1.5212401 0.273595,0.56948 0.396364,0.7595564 0.51073,1.381059 0.151319,1.1561015 -0.13188,2.2916413 -0.57474,3.3467713 -0.306148,0.8711705 -1.199379,1.6964795 -2.048976,2.2262888 -0.899869,0.718661 -1.83876,1.80193 -3.131997,1.68654 -0.797833,0.05623 -1.509197,-0.04573 -2.110111,-0.42549 -0.135803,-0.04726 -0.236398,-0.10993 -0.36287,-0.14567"
       id="path10835" />
    <path
       style="fill:none;stroke:#ffffff;stroke-width:0.256;stroke-linecap:round;stroke-dasharray:none;stroke-opacity:1;paint-order:stroke fill markers"
       d="m 40.50312,3.1129303 c 0.304596,0.5010748 0.646068,1.1712677 1.055382,1.470914"
       id="path10855" />
    <path
       style="fill:none;stroke:#ffffff;stroke-width:0.256;stroke-linecap:round;stroke-dasharray:none;stroke-opacity:1;paint-order:stroke fill markers"
       d="M 41.128307,5.127767 C 40.257505,4.6485853 39.735497,3.6682875 39.356996,2.8183904"
       id="path10857" />
    <path
       style="fill:none;stroke:#ffffff;stroke-width:0.256;stroke-linecap:round;stroke-dasharray:none;stroke-opacity:1;paint-order:stroke fill markers"
       d="m 43.329373,1.6291798 c 0.380679,0.328796 0.587199,0.8194071 0.690224,1.2930899"
       id="path10859" />
    <path
       style="fill:none;stroke:#ffffff;stroke-width:0.256;stroke-linecap:round;stroke-dasharray:none;stroke-opacity:1;paint-order:stroke fill markers"
       d="M 44.720565,3.2561717 C 44.435696,2.1416571 43.920821,1.4352722 43.242838,0.61300783"
       id="path10861" />
    <path
       style="fill:none;stroke:#ffffff;stroke-width:0.256;stroke-linecap:round;stroke-dasharray:none;stroke-opacity:1;paint-order:stroke fill markers"
       d="m 15.543285,7.3609858 c 0.4494,0.0085 0.874598,0.5066167 1.176803,0.956119 0.21877,0.5662661 0.491682,1.0395399 0.80515,1.6387124 0.44164,0.7265618 1.220226,1.3085668 1.861142,1.7685298 0.524749,0.426392 0.91242,0.870619 1.113026,1.510224 0.165236,0.381026 0.531557,1.162647 0.479723,1.826554 0.05318,0.877593 0.222299,2.136043 -0.814101,2.495747 -0.435208,0.214519 -1.113295,0.204044 -1.503251,0.16206"
       id="path10863" />
    <path
       style="fill:none;stroke:#ffffff;stroke-width:0.256;stroke-linecap:round;stroke-dasharray:none;stroke-opacity:1;paint-order:stroke fill markers"
       d="m 41.308702,18.428285 c 0.900255,-0.110673 1.072943,-1.171102 1.427877,-1.804161 0.15878,-0.513074 -0.114823,-1.239388 0.4679,-1.418836"
       id="path10865" />
    <path
       style="fill:none;stroke:#ffffff;stroke-width:0.256;stroke-linecap:round;stroke-dasharray:none;stroke-opacity:1;paint-order:stroke fill markers"
       d="m 43.115565,14.786397 c 0.132828,0.267291 0.389995,0.453559 0.536369,0.685028 0.329037,-0.113626 0.376357,-0.528251 0.651878,-0.66307 -0.277275,-0.09194 -0.444302,-0.383339 -0.65459,-0.51272 -0.20814,0.112063 -0.426666,0.277692 -0.533657,0.490762 z"
       id="path10869" />
    <path
       style="fill:none;stroke:#ffffff;stroke-width:0.256;stroke-linecap:round;stroke-dasharray:none;stroke-opacity:1;paint-order:stroke fill markers"
       d="m 43.85588,14.323294 c 0.312492,-0.154687 0.517449,-0.463626 0.667481,-0.0031 0.102574,0.09547 -0.221062,0.29221 -0.29824,0.396649"
       id="path10871" />
    <path
       style="fill:none;stroke:#ffffff;stroke-width:0.256;stroke-linecap:round;stroke-dasharray:none;stroke-opacity:1;paint-order:stroke fill markers"
       d="M 13.613758,2.7781583 C 13.704141,2.1021886 13.508593,1.5224224 13.092457,1.0682056 12.783659,0.88466184 12.572858,0.64912231 12.225607,0.4747155 c -0.298322,-0.28143454 -0.371539,0.38467992 -0.54203,0.5868046 -0.119572,0.7851108 -0.275612,1.5359233 -0.35871,2.3328392 -0.02323,0.2075459 0.03664,0.3811261 0.09883,0.5322335"
       id="path10939" />
    <path
       style="fill:none;stroke:#ffffff;stroke-width:0.256;stroke-linecap:round;stroke-dasharray:none;stroke-opacity:1;paint-order:stroke fill markers"
       d="m 19.431046,6.7949444 c 0.657465,-0.1069646 1.538671,0.1416893 0.316216,0.425087 -1.955591,0.2539372 1.849596,0.060581 0.764666,0.2872493 -0.509438,0.2264261 -2.448321,0.5916678 -0.836228,0.606473 0.574077,0.1147002 2.373757,-0.042169 0.850806,0.3125435 -0.796492,0.2878524 -2.236762,0.5716681 -0.601357,0.5148801 1.56556,-0.086802 -1.784095,0.673666 -0.162672,0.6564085 0.87081,-0.2095289 -0.14302,0.6945412 -0.187821,0.8347432"
       id="path10941" />
    <path
       style="fill:none;stroke:#ffffff;stroke-width:0.256;stroke-linecap:round;stroke-dasharray:none;stroke-opacity:1;paint-order:stroke fill markers"
       d="m 24.943564,7.003149 c -0.858808,-0.073183 -1.482726,0.5978906 -0.225623,0.8249048 2.11982,0.2756607 -3.325954,0.9713219 -0.656495,0.9913762 0.506894,5.97e-5 2.061642,-0.1411751 0.837183,0.4075529 -0.531932,0.1344845 -1.784055,0.557459 -0.43006,0.6012248 1.933143,-0.2095633 -2.315134,0.8616463 -0.238709,0.5692573 1.133235,0.03121 -2.453786,0.933017 -0.501307,0.729652 1.147812,-0.05508 -0.910954,0.299397 0.188818,0.467076 -0.148081,-0.02182 -0.196346,0.245519 -0.294456,0.238916"
       id="path10943" />
    <path
       style="fill:none;stroke:#ffffff;stroke-width:0.256;stroke-linecap:round;stroke-dasharray:none;stroke-opacity:1;paint-order:stroke fill markers"
       d="m 30.568786,7.5782074 c -0.568565,0.2850454 -2.476169,0.374137 -0.868906,0.7758957 0.904094,0.1395398 1.354999,0.3642031 0.130327,0.5846143 -0.905051,0.01514 -1.455071,0.6210046 -0.157351,0.5936897 1.009307,0.087467 -2.295623,0.7874529 -0.544774,0.8663109 -0.190578,0.638144 -1.046084,0.779095 -0.08217,0.814057 -0.115354,0.230185 -0.5253,0.273178 -0.598678,0.482783"
       id="path10945" />
    <path
       style="fill:none;stroke:#ffffff;stroke-width:0.256;stroke-linecap:round;stroke-dasharray:none;stroke-opacity:1;paint-order:stroke fill markers"
       d="M 5.816011,18.785807 C 5.9489118,18.548415 6.1562155,18.335228 6.39243,18.247779"
       id="path10947" />
    <path
       style="fill:none;stroke:#ffffff;stroke-width:0.256;stroke-linecap:round;stroke-dasharray:none;stroke-opacity:1;paint-order:stroke fill markers"
       d="M 5.3340978,18.420981 C 5.5226928,18.261485 5.728859,18.091915 5.9439007,18.024846"
       id="path10949" />
    <path
       style="fill:none;stroke:#ffffff;stroke-width:0.256;stroke-linecap:round;stroke-dasharray:none;stroke-opacity:1;paint-order:stroke fill markers"
       d="M 4.9446518,16.483518 C 5.0911787,16.210334 5.3666884,15.949391 5.6100291,15.810999"
       id="path10951" />
    <path
       style="fill:none;stroke:#ffffff;stroke-width:0.256;stroke-linecap:round;stroke-dasharray:none;stroke-opacity:1;paint-order:stroke fill markers"
       d="m 4.23771,16.213851 c 0.2982988,-0.170027 0.4575223,-0.488306 0.8085889,-0.54911"
       id="path10953" />
  </g>
  <g
     inkscape:groupmode="layer"
     id="layer2"
     inkscape:label="Layer 2" />
</svg>
